<svg width="128" height="128" viewBox="0 0 128 128" fill="none" xmlns="http://www.w3.org/2000/svg">
  <defs>
    <linearGradient id="top128" x1="0%" y1="0%" x2="0%" y2="100%">
      <stop offset="0%" style="stop-color:#40A9FF;stop-opacity:1" />
      <stop offset="100%" style="stop-color:#1890FF;stop-opacity:1" />
    </linearGradient>
    
    <linearGradient id="left128" x1="0%" y1="0%" x2="100%" y2="0%">
      <stop offset="0%" style="stop-color:#0B2847;stop-opacity:1" />
      <stop offset="100%" style="stop-color:#1677D9;stop-opacity:1" />
    </linearGradient>
    
    <linearGradient id="right128" x1="0%" y1="0%" x2="100%" y2="0%">
      <stop offset="0%" style="stop-color:#1677D9;stop-opacity:1" />
      <stop offset="100%" style="stop-color:#597EF7;stop-opacity:1" />
    </linearGradient>
    
    <filter id="shadow128">
      <feDropShadow dx="0" dy="2" stdDeviation="3" flood-opacity="0.2"/>
    </filter>
  </defs>

  <!-- Background -->
  <circle cx="64" cy="64" r="56" fill="#F0F5FF" opacity="0.5"/>

  <g transform="translate(20, 40)" filter="url(#shadow128)">
    
    <!-- W - Bar 1 -->
    <g>
      <path d="M 4 28 L 12 24 L 12 40 L 4 44 Z" fill="url(#top128)"/>
      <path d="M 4 28 L 4 44 L 8 52 L 8 36 Z" fill="url(#left128)"/>
      <path d="M 12 24 L 12 40 L 16 48 L 16 32 Z" fill="url(#right128)"/>
    </g>
    
    <!-- W - Bar 2 -->
    <g>
      <path d="M 20 40 L 28 36 L 28 44 L 20 48 Z" fill="url(#top128)"/>
      <path d="M 20 40 L 20 48 L 24 52 L 24 44 Z" fill="url(#left128)"/>
      <path d="M 28 36 L 28 44 L 32 48 L 32 40 Z" fill="url(#right128)"/>
    </g>
    
    <!-- W - Bar 3 -->
    <g>
      <path d="M 36 30 L 44 26 L 44 42 L 36 46 Z" fill="url(#top128)"/>
      <path d="M 36 30 L 36 46 L 40 54 L 40 38 Z" fill="url(#left128)"/>
      <path d="M 44 26 L 44 42 L 48 50 L 48 34 Z" fill="url(#right128)"/>
    </g>
    
    <!-- i - Bar 4 -->
    <g>
      <path d="M 64 12 L 72 8 L 72 56 L 64 60 Z" fill="url(#top128)"/>
      <path d="M 64 12 L 64 60 L 68 64 L 68 16 Z" fill="url(#left128)"/>
      <path d="M 72 8 L 72 56 L 76 60 L 76 12 Z" fill="url(#right128)"/>
    </g>
    
    <!-- Red Dot -->
    <circle cx="68" cy="0" r="7" fill="#FF4D4F"/>
    
    <!-- Arrow -->
    <path d="M 64 -4 L 70 -10 L 76 -4" 
          stroke="#52C41A" 
          stroke-width="4" 
          fill="none" 
          stroke-linecap="round" 
          stroke-linejoin="round"/>
  </g>
  
  <!-- Baseline -->
  <line x1="20" y1="105" x2="108" y2="105" stroke="#1890FF" stroke-width="1" opacity="0.1"/>
</svg>
